<?xml version="1.0" encoding="UTF-8"?> <svg xmlns="http://www.w3.org/2000/svg" width="209" height="77" viewBox="0 0 209 77" fill="none"> <path d="M0 55.05V48.45H1C3.4 48.45 5.19998 46.85 6.19998 43.65C7.19998 40.45 7.79999 34.75 7.79999 26.55V19.65H38.4V55.45H28V28.55H17.3V30.85C17.3 35.05 17.1 38.65 16.6 41.65C16.2 44.75 15.6 47.15 14.8 48.95C14.1 50.75 13.1 52.25 12 53.35C10.9 54.45 9.80001 55.15 8.60001 55.55C7.50001 55.95 6.19999 56.15 4.79999 56.15C2.99999 56.05 1.4 55.75 0 55.05Z" fill="white"></path> <path d="M59.6 56.05C55.1 56.05 51.5 55.05 48.9 53.05C46.3 51.05 45 48.35 45 44.85C45 41.35 46.4 38.55 49.1 36.55C51.9 34.55 55.7 33.55 60.5 33.55C62.5 33.55 64.8 33.75 67.5 34.25V33.25C67.5 31.55 66.7 30.15 65.2 29.25C63.6 28.35 61.4 27.85 58.5 27.85C54.1 27.85 50.6 28.85 48.1 30.75V21.65C51.5 19.75 55.7 18.75 60.6 18.75C66.1 18.75 70.4 19.95 73.4 22.25C76.4 24.55 77.9 27.85 77.9 32.05V45.25C77.9 47.35 79.2 48.35 81.9 48.35V54.95C80.8 55.55 79.3 55.95 77.3 55.95C74.2 55.95 71.7 55.05 69.8 53.15C67.3 55.05 63.9 56.05 59.6 56.05ZM62.9 40.85C60.6 40.85 58.7 41.15 57.4 41.85C56.1 42.55 55.4 43.45 55.4 44.65C55.4 45.65 55.9 46.55 57 47.05C58.1 47.65 59.6 47.95 61.4 47.95C64 47.95 66 47.25 67.5 45.85V41.35C65.7 41.05 64.2 40.85 62.9 40.85Z" fill="white"></path> <path d="M87.2998 55.35V19.55H97.6998V38.45L117.5 19.55H123.8V55.35H113.4V36.45L93.5998 55.35H87.2998Z" fill="white"></path> <path d="M132.3 55.35V19.55H142.7V32.65H147.2L156.5 19.55H168.5L155.6 37.25L169.5 55.35H157.4L147.3 41.55H142.8V55.35H132.3Z" fill="white"></path> <path d="M186.6 56.05C182.1 56.05 178.5 55.05 175.9 53.05C173.3 51.05 172 48.35 172 44.85C172 41.35 173.4 38.55 176.1 36.55C178.9 34.55 182.7 33.55 187.5 33.55C189.5 33.55 191.8 33.75 194.5 34.25V33.25C194.5 31.55 193.7 30.15 192.2 29.25C190.6 28.35 188.4 27.85 185.5 27.85C181.1 27.85 177.6 28.85 175.1 30.75V21.65C178.5 19.75 182.7 18.75 187.6 18.75C193.1 18.75 197.4 19.95 200.4 22.25C203.4 24.55 204.9 27.85 204.9 32.05V45.25C204.9 47.35 206.2 48.35 208.9 48.35V54.95C207.8 55.55 206.3 55.95 204.3 55.95C201.2 55.95 198.7 55.05 196.8 53.15C194.3 55.05 190.9 56.05 186.6 56.05ZM189.9 40.85C187.6 40.85 185.7 41.15 184.4 41.85C183.1 42.55 182.4 43.45 182.4 44.65C182.4 45.65 182.9 46.55 184 47.05C185.1 47.65 186.6 47.95 188.4 47.95C191 47.95 193 47.25 194.5 45.85V41.35C192.7 41.05 191.2 40.85 189.9 40.85Z" fill="white"></path> <path d="M113.8 1.65C111.6 -0.55 108 -0.55 105.8 1.65L104.7 2.75001L103.6 1.65C101.4 -0.55 97.8002 -0.55 95.6002 1.65C93.4002 3.85 93.4002 7.45 95.6002 9.65L96.2002 10.25L104.7 18.75L113.2 10.25L113.8 9.65C116 7.45 116 3.85 113.8 1.65Z" fill="white"></path> <path d="M51.2998 73.05L51.4998 71.65H53.1998L53.6998 68.45H51.9998L52.1998 67.05H53.8998L54.2998 64.35H56.0998L55.6998 67.05H58.3998L58.7998 64.35H60.5998L60.1998 67.05H61.8998L61.6998 68.45H59.8998L59.3998 71.65H61.0998L60.8998 73.05H59.1998L58.7998 75.75H56.9998L57.3998 73.05H54.6998L54.2998 75.75H52.4998L52.8998 73.05H51.2998ZM54.9998 71.65H57.6998L58.1998 68.45H55.4998L54.9998 71.65Z" fill="white"></path> <path d="M62.5996 73.45C63.0996 73.85 63.6996 74.05 64.4996 74.05C65.0996 74.05 65.5996 73.95 66.0996 73.65C66.4996 73.35 66.7996 73.05 66.9996 72.55H64.2996V70.95H66.9996C66.7996 70.55 66.4996 70.15 66.0996 69.95C65.6996 69.75 65.1996 69.55 64.5996 69.55C63.8996 69.55 63.1996 69.75 62.6996 70.15V68.15C63.3996 67.85 64.0996 67.65 64.9996 67.65C66.2996 67.65 67.2996 68.05 68.1996 68.85C68.9996 69.65 69.3996 70.65 69.3996 71.85C69.3996 73.05 68.9996 74.05 68.1996 74.85C67.3996 75.65 66.2996 76.05 64.9996 76.05C64.1996 76.05 63.3996 75.85 62.6996 75.55V73.45H62.5996Z" fill="white"></path> <path d="M72.6 69.95H70V67.95H77.6V69.95H74.9V75.85H72.6V69.95Z" fill="white"></path> <path d="M82.5998 67.75C83.8998 67.75 84.8998 68.15 85.6998 68.95C86.4998 69.75 86.8998 70.75 86.8998 71.95C86.8998 73.15 86.4998 74.15 85.6998 74.95C84.8998 75.75 83.8998 76.15 82.5998 76.15C81.2998 76.15 80.2998 75.75 79.4998 74.95C78.6998 74.15 78.2998 73.15 78.2998 71.95C78.2998 70.75 78.6998 69.75 79.4998 68.95C80.2998 68.15 81.2998 67.75 82.5998 67.75ZM81.1998 70.45C80.7998 70.85 80.6998 71.35 80.6998 71.95C80.6998 72.55 80.8998 73.05 81.1998 73.45C81.5998 73.85 81.9998 74.05 82.5998 74.05C83.1998 74.05 83.5998 73.85 83.9998 73.45C84.3998 73.05 84.4998 72.55 84.4998 71.95C84.4998 71.35 84.2998 70.85 83.9998 70.45C83.5998 70.05 83.1998 69.85 82.5998 69.85C81.9998 69.85 81.4998 70.05 81.1998 70.45Z" fill="white"></path> <path d="M88.2998 67.95H96.0998V75.85H93.7998V69.95H90.5998V75.85H88.2998V67.95Z" fill="white"></path> <path d="M101.8 67.75C103.1 67.75 104.1 68.15 104.9 68.95C105.7 69.75 106.1 70.75 106.1 71.95C106.1 73.15 105.7 74.15 104.9 74.95C104.1 75.75 103.1 76.15 101.8 76.15C100.5 76.15 99.5 75.75 98.7 74.95C97.9 74.15 97.5 73.15 97.5 71.95C97.5 70.75 97.9 69.75 98.7 68.95C99.5 68.15 100.6 67.75 101.8 67.75ZM100.4 70.45C100 70.85 99.9 71.35 99.9 71.95C99.9 72.55 100.1 73.05 100.4 73.45C100.7 73.85 101.2 74.05 101.8 74.05C102.4 74.05 102.8 73.85 103.2 73.45C103.6 73.05 103.7 72.55 103.7 71.95C103.7 71.35 103.5 70.85 103.2 70.45C102.8 70.05 102.4 69.85 101.8 69.85C101.2 69.85 100.8 70.05 100.4 70.45Z" fill="white"></path> <path d="M106.8 75.75V74.25H107C107.5 74.25 107.9 73.85 108.1 73.15C108.3 72.45 108.4 71.15 108.4 69.35V67.85H115.1V75.75H112.8V69.85H110.5V70.35C110.5 71.25 110.5 72.05 110.4 72.75C110.3 73.45 110.2 73.95 110 74.35C109.8 74.75 109.6 75.05 109.4 75.35C109.2 75.55 108.9 75.75 108.7 75.85C108.5 75.95 108.2 75.95 107.9 75.95C107.5 75.95 107.1 75.95 106.8 75.75Z" fill="white"></path> <path d="M117.1 75.85V67.95H119.4V70.85H120.7C120.9 69.95 121.4 69.15 122.1 68.55C122.8 67.95 123.7 67.75 124.7 67.75C125.9 67.75 126.9 68.15 127.7 68.95C128.5 69.75 128.8 70.75 128.8 71.95C128.8 73.15 128.4 74.15 127.7 74.95C126.9 75.75 125.9 76.15 124.7 76.15C123.7 76.15 122.8 75.85 122 75.25C121.3 74.65 120.8 73.85 120.6 72.85H119.3V75.85H117.1ZM123.4 70.45C123.1 70.85 122.9 71.35 122.9 71.95C122.9 72.55 123.1 73.05 123.4 73.45C123.7 73.85 124.2 74.05 124.7 74.05C125.2 74.05 125.6 73.85 126 73.45C126.3 73.05 126.5 72.55 126.5 71.95C126.5 71.35 126.3 70.85 126 70.45C125.7 70.05 125.3 69.85 124.7 69.85C124.2 69.85 123.8 70.05 123.4 70.45Z" fill="white"></path> <path d="M134.3 64.15L137.9 63.85V65.95L134.6 66.35C134 66.45 133.5 66.65 133.1 66.95C132.7 67.25 132.5 67.85 132.4 68.45C132.9 68.05 133.7 67.75 134.6 67.75C135.8 67.75 136.7 68.15 137.5 68.85C138.2 69.65 138.6 70.55 138.6 71.75C138.6 72.95 138.2 73.95 137.4 74.75C136.6 75.55 135.6 75.95 134.4 75.95C133 75.95 131.9 75.45 131.2 74.35C130.4 73.35 130.1 71.85 130.1 69.85C130 66.45 131.4 64.45 134.3 64.15ZM132.3 70.75C132.4 71.75 132.6 72.55 132.9 73.15C133.3 73.75 133.7 73.95 134.3 73.95C134.8 73.95 135.3 73.75 135.6 73.35C135.9 72.95 136.1 72.45 136.1 71.85C136.1 71.25 135.9 70.65 135.5 70.25C135.1 69.85 134.6 69.65 134 69.65C133.3 69.75 132.7 70.05 132.3 70.75Z" fill="white"></path> <path d="M140 75.85V67.95H144.5C145.3 67.95 145.9 68.15 146.3 68.55C146.8 68.95 147 69.45 147 70.15C147 70.75 146.8 71.35 146.3 71.75C147 72.15 147.3 72.75 147.3 73.55C147.3 74.25 147.1 74.75 146.6 75.15C146.1 75.55 145.5 75.75 144.8 75.75H140V75.85ZM144.1 69.75H142.3V71.05H144.1C144.3 71.05 144.5 70.95 144.7 70.85C144.8 70.75 144.9 70.55 144.9 70.35C144.9 70.15 144.8 69.95 144.7 69.85C144.5 69.85 144.3 69.75 144.1 69.75ZM144.3 72.65H142.3V73.95H144.3C144.5 73.95 144.7 73.85 144.9 73.75C145.1 73.65 145.1 73.45 145.1 73.25C145.1 73.05 145 72.85 144.9 72.75C144.8 72.75 144.6 72.65 144.3 72.65Z" fill="white"></path> <path d="M154.6 71.65L150.2 75.85H148.9V67.95H151.2V72.15L155.6 67.95H157V75.85H154.7V71.65H154.6Z" fill="white"></path> </svg> 