<?xml version="1.0" encoding="UTF-8"?> <svg xmlns="http://www.w3.org/2000/svg" width="19" height="16" viewBox="0 0 19 16" fill="none"> <path d="M11.1791 0H7.58583C7.21833 0 6.92041 0.297924 6.92041 0.665423V14.8544C6.92041 15.2219 7.21833 15.5199 7.58583 15.5199H11.1791C11.5466 15.5199 11.8445 15.2219 11.8445 14.8544V0.665423C11.8445 0.297881 11.5466 0 11.1791 0Z" fill="white"></path> <path d="M18.1215 8.27344H14.5282C14.1607 8.27344 13.8628 8.57136 13.8628 8.93886V14.8589C13.8628 15.2264 14.1607 15.5243 14.5282 15.5243H18.1215C18.489 15.5243 18.7869 15.2264 18.7869 14.8589V8.93886C18.7869 8.57132 18.489 8.27344 18.1215 8.27344Z" fill="white"></path> <path d="M4.25871 5.30127H0.665423C0.297924 5.30127 0 5.59919 0 5.96669V14.8501C0 15.2176 0.297924 15.5155 0.665423 15.5155H4.25871C4.6262 15.5155 4.92413 15.2176 4.92413 14.8501V5.96669C4.92413 5.59919 4.6262 5.30127 4.25871 5.30127Z" fill="white"></path> </svg> 